# xmcd CD database file
#
# Track frame offsets:
#	150
#	17457
#	34657
#	57735
#	71632
#	91560
#	123291
#
# Disc length: 1933 seconds
#
# Revision: 4
# Processed by: cddbd v1.5.2PL0 Copyright (c) Steve Scherf et al.
# Submitted via: CDex 1.51
#
DISCID=51078b07
DTITLE=Grover Washington, Jr. - All The King's Horses
DYEAR=1972
DGENRE=Jazz
TTITLE0=No Tears, In The End
TTITLE1=All The King's Horses
TTITLE2=Where Is The Love
TTITLE3=Body And Soul (Montage)
TTITLE4=Lean On Me
TTITLE5=Lover Man
TTITLE6=Love Song 1700
EXTD=YEAR: 1972
EXTT0=
EXTT1=
EXTT2=
EXTT3=
EXTT4=
EXTT5=(Contains Interlude #2 written by Bob James)
EXTT6=(Adapted from a song by Henry Purcell)
PLAYORDER=
